<?xml version="1.0"?>
<svg xmlns="http://www.w3.org/2000/svg" viewBox="0 0 24 24" width="96px" height="96px">
    <path d="M 7 3 L 7 6 L 2 6 L 2 21 L 22 21 L 22 6 L 17 6 L 17 3 L 7 3 z M 12 8 C 14.757 8 17 10.243 17 13 C 17 15.757 14.757 18 12 18 C 9.243 18 7 15.757 7 13 C 7 10.243 9.243 8 12 8 z M 19 8 C 19.552 8 20 8.448 20 9 C 20 9.552 19.552 10 19 10 C 18.448 10 18 9.552 18 9 C 18 8.448 18.448 8 19 8 z M 12 10 A 3 3 0 0 0 9 13 A 3 3 0 0 0 12 16 A 3 3 0 0 0 15 13 A 3 3 0 0 0 12 10 z"/>
</svg>
